P2
5 5
255
13 18 30 50 60 
13 18 29 46 55 
23 24 29 39 45 
25 26 29 32 35 
30 30 30 30 30 

