P2
10 10
20
20 20 20 20 20 20 20 20 20 20 
20 13 13 13 13 13 13 13 13 20 
20 16 20 20 20 20 20 20 20 20 
20 16 20 20 20 20 20 20 20 20 
20 16 20 20 20 20 20 20 20 20 
20 16 20 20 20 19 19 19 19 20 
20 16 20 20 20 20 20 20 19 20 
20 16 20 20 20 20 20 20 19 20 
20 16 18 18 18 18 18 18 18 20 
20 20 20 20 20 20 20 20 20 20 

