P2
#arquivo de exemplo que desenha a letra G em 3 tons de cinza diferentes e branco sobre #um fundo preto
10 10
7
0 0 0 0 0 0 0 0 0 0
0 7 7 7 7 7 7 7 7 0
0 4 0 0 0 0 0 0 0 0
0 4 0 0 0 0 0 0 0 0
0 4 0 0 0 0 0 0 0 0
0 4 0 0 0 1 1 1 1 0
0 4 0 0 0 0 0 0 1 0
0 4 0 0 0 0 0 0 1 0
0 4 2 2 2 2 2 2 2 0
0 0 0 0 0 0 0 0 0 0